<?xml version="1.0" standalone="no"?><!DOCTYPE svg PUBLIC "-//W3C//DTD SVG 1.1//EN" "http://www.w3.org/Graphics/SVG/1.1/DTD/svg11.dtd"><svg t="1742313964175" class="icon" viewBox="0 0 1024 1024" version="1.1" xmlns="http://www.w3.org/2000/svg" p-id="4743" width="256" height="256" xmlns:xlink="http://www.w3.org/1999/xlink"><path d="M397.857229 1010.062629c584.860786 88.556834 605.415939-273.860005 605.415939-273.860005 22.734012-259.465763-242.9991-335.644425-323.241209-479.805984-80.36733-144.080165 105.987704-165.749792 94.636351-73.041857-11.263698 92.570191 43.276643 109.143292 46.382142 116.343544 3.055411 7.156424 82.308268 86.503197 93.672143 71.589284 11.288742-15.001568-32.432438-71.589284-32.432438-71.589284s33.947621-19.628512 46.789114-63.85684c37.078165-100.953789-146.133802-343.884017-339.664044-181.258508-189.4981 175.066292 63.73788 364.583175 129.72349 459.263353 65.897955 94.705223 63.468653 166.169285 22.596268 179.161044-41.773982 13.210896-74.387991-28.381514-91.530851-92.726719C634.250881 540.274386 528.751542 347.075983 304.247696 408.735181 137.483608 462.355142 156.968115 528.203008 23.049696 491.137365c-47.302523 450.96115 374.807533 518.925265 374.807533 518.925264z" p-id="4744" fill="#2c2c2c"></path></svg>